<svg width="1280" height="360" viewBox="0 0 1280 360" fill="none" xmlns="http://www.w3.org/2000/svg">
<path d="M603.545 124.705V66.5227H617V70.9773H608.636V120.25H617V124.705H603.545Z" fill="#32C572"/>
<path d="M643.52 110.25V107.018L647.84 105.258V86.666C647.84 82.602 645.728 81.194 642.912 81.194C640.704 81.194 637.696 81.898 634.272 83.786V105.322L638.496 107.018V110.25H624V107.018L628.32 105.258V83.338L622.72 82.474V78.922L633.088 76.522L633.92 76.874V80.554C638.112 77.898 641.952 76.362 645.696 76.362C651.168 76.362 653.792 79.466 653.792 85.418V105.322L658.016 107.018V110.25H643.52Z" fill="#E6EBF9"/>
<path d="M675.636 66.5227V124.705H662.182V120.25H670.545V70.9773H662.182V66.5227H675.636Z" fill="#32C572"/>
<path d="M544.42 239V237.6L546.3 237.32C546.727 237.24 547.007 237.08 547.14 236.84C547.273 236.573 547.34 236.093 547.34 235.4V222.84C547.34 221.907 547.26 221.28 547.1 220.96C546.94 220.64 546.567 220.453 545.98 220.4L544.06 220.16L544.26 218.76L550.62 218.32L550.98 218.6L551.14 222.32H551.22C551.887 220.96 552.847 219.907 554.1 219.16C555.353 218.413 556.7 218.04 558.14 218.04C559.553 218.04 560.74 218.307 561.7 218.84C562.66 219.347 563.38 220.12 563.86 221.16C564.34 222.173 564.58 223.427 564.58 224.92V235.68C564.58 236.293 564.66 236.707 564.82 236.92C564.98 237.133 565.313 237.28 565.82 237.36L567.62 237.6V239H557.58V237.64L559.26 237.4C559.767 237.293 560.087 237.133 560.22 236.92C560.38 236.707 560.46 236.307 560.46 235.72V225.56C560.46 224.307 560.34 223.32 560.1 222.6C559.86 221.853 559.46 221.32 558.9 221C558.367 220.68 557.62 220.52 556.66 220.52C555.647 220.52 554.74 220.747 553.94 221.2C553.167 221.627 552.553 222.253 552.1 223.08C551.673 223.88 551.46 224.84 551.46 225.96V235.56C551.46 236.147 551.527 236.56 551.66 236.8C551.793 237.04 552.06 237.2 552.46 237.28L554.46 237.64V239H544.42ZM590.156 239.56C588.156 239.56 586.409 239.147 584.916 238.32C583.449 237.467 582.316 236.28 581.516 234.76C580.716 233.213 580.316 231.373 580.316 229.24C580.316 226.893 580.742 224.893 581.596 223.24C582.449 221.56 583.649 220.28 585.196 219.4C586.769 218.493 588.609 218.04 590.716 218.04C592.662 218.04 594.356 218.453 595.796 219.28C597.236 220.08 598.342 221.253 599.116 222.8C599.916 224.32 600.316 226.147 600.316 228.28C600.316 230.573 599.889 232.573 599.036 234.28C598.209 235.96 597.036 237.267 595.516 238.2C593.996 239.107 592.209 239.56 590.156 239.56ZM590.756 237.72C591.849 237.72 592.769 237.413 593.516 236.8C594.289 236.187 594.862 235.253 595.236 234C595.609 232.747 595.796 231.147 595.796 229.2C595.796 227.653 595.662 226.293 595.396 225.12C595.156 223.92 594.782 222.933 594.276 222.16C593.769 221.387 593.156 220.813 592.436 220.44C591.742 220.04 590.942 219.84 590.036 219.84C588.916 219.84 587.969 220.133 587.196 220.72C586.422 221.28 585.822 222.173 585.396 223.4C584.996 224.6 584.796 226.147 584.796 228.04C584.796 230.2 585.036 232 585.516 233.44C586.022 234.853 586.716 235.92 587.596 236.64C588.476 237.36 589.529 237.72 590.756 237.72ZM613.639 239V237.6L615.519 237.28C615.945 237.2 616.225 237.04 616.359 236.8C616.492 236.533 616.559 236.053 616.559 235.36V222.88C616.559 221.947 616.479 221.32 616.319 221C616.159 220.653 615.785 220.453 615.199 220.4L613.279 220.2L613.479 218.76L619.759 218.32L620.119 218.6L620.399 222.36H620.479C621.145 220.973 621.999 219.907 623.039 219.16C624.079 218.413 625.199 218.04 626.399 218.04C627.679 218.04 628.692 218.387 629.439 219.08C630.185 219.747 630.559 220.64 630.559 221.76C630.559 222.427 630.452 223 630.239 223.48C630.052 223.933 629.745 224.293 629.319 224.56C628.919 224.8 628.412 224.92 627.799 224.92C626.999 224.92 626.385 224.747 625.959 224.4C625.559 224.053 625.359 223.613 625.359 223.08C625.359 222.84 625.399 222.6 625.479 222.36C625.559 222.12 625.679 221.84 625.839 221.52C625.999 221.2 626.199 220.84 626.439 220.44C625.825 220.2 625.172 220.173 624.479 220.36C623.812 220.547 623.185 220.92 622.599 221.48C622.039 222.013 621.572 222.693 621.199 223.52C620.852 224.32 620.679 225.187 620.679 226.12V235.44C620.679 236.08 620.745 236.52 620.879 236.76C621.012 236.973 621.292 237.107 621.719 237.16L625.039 237.6V239H613.639ZM642.576 239V237.56L644.736 237.24C645.216 237.187 645.522 237.027 645.656 236.76C645.789 236.493 645.856 236 645.856 235.28V222.96C645.856 222 645.776 221.36 645.616 221.04C645.456 220.72 645.069 220.52 644.456 220.44L642.576 220.24L642.736 218.76L649.616 218.44L650.016 218.64V235.44C650.016 236 650.082 236.427 650.216 236.72C650.349 236.987 650.669 237.16 651.176 237.24L653.336 237.6V239H642.576ZM647.376 214.28C646.549 214.28 645.869 214.027 645.336 213.52C644.802 213.013 644.536 212.347 644.536 211.52C644.536 210.72 644.802 210.067 645.336 209.56C645.869 209.027 646.549 208.76 647.376 208.76C648.256 208.76 648.949 209.013 649.456 209.52C649.989 210.027 650.256 210.693 650.256 211.52C650.256 212.32 649.989 212.987 649.456 213.52C648.922 214.027 648.229 214.28 647.376 214.28ZM684.935 239.36C684.268 239.36 683.668 239.267 683.135 239.08C682.628 238.92 682.135 238.627 681.655 238.2C681.175 237.747 680.628 237.133 680.015 236.36L673.735 228.2V227.88L680.415 221.8C680.788 221.48 680.975 221.173 680.975 220.88C680.975 220.56 680.762 220.36 680.335 220.28L678.775 220L679.015 218.6H687.175V219.96L685.895 220.32C685.495 220.427 685.082 220.587 684.655 220.8C684.255 220.987 683.762 221.333 683.175 221.84L677.575 226.72L684.095 234.88C684.628 235.573 685.108 236.08 685.535 236.4C685.988 236.72 686.495 236.88 687.055 236.88C687.268 236.88 687.508 236.853 687.775 236.8C688.042 236.747 688.362 236.653 688.735 236.52L689.055 237.6C688.522 238.133 687.882 238.56 687.135 238.88C686.415 239.2 685.682 239.36 684.935 239.36ZM666.015 239V237.6L667.975 237.28C668.508 237.227 668.842 237.067 668.975 236.8C669.135 236.533 669.215 236.027 669.215 235.28V212.64C669.215 211.76 669.122 211.16 668.935 210.84C668.775 210.52 668.348 210.32 667.655 210.24L665.855 210.04L666.015 208.56L672.975 208.36L673.375 208.68V235.44C673.375 236.027 673.428 236.467 673.535 236.76C673.668 237.027 673.975 237.2 674.455 237.28L675.815 237.56V239H666.015ZM700.193 239V237.56L702.353 237.24C702.833 237.187 703.139 237.027 703.273 236.76C703.406 236.493 703.473 236 703.473 235.28V222.96C703.473 222 703.393 221.36 703.233 221.04C703.073 220.72 702.686 220.52 702.073 220.44L700.193 220.24L700.353 218.76L707.233 218.44L707.633 218.64V235.44C707.633 236 707.699 236.427 707.833 236.72C707.966 236.987 708.286 237.16 708.793 237.24L710.953 237.6V239H700.193ZM704.993 214.28C704.166 214.28 703.486 214.027 702.953 213.52C702.419 213.013 702.153 212.347 702.153 211.52C702.153 210.72 702.419 210.067 702.953 209.56C703.486 209.027 704.166 208.76 704.993 208.76C705.873 208.76 706.566 209.013 707.073 209.52C707.606 210.027 707.873 210.693 707.873 211.52C707.873 212.32 707.606 212.987 707.073 213.52C706.539 214.027 705.846 214.28 704.993 214.28ZM730.695 239.56C729.548 239.56 728.575 239.36 727.775 238.96C727.001 238.533 726.415 237.88 726.015 237C725.615 236.12 725.415 234.987 725.415 233.6V220.44H722.415V218.96C723.401 218.853 724.201 218.573 724.815 218.12C725.455 217.667 725.948 216.96 726.295 216C726.641 215.04 726.868 213.773 726.975 212.2L729.135 211.92L729.575 212.16V218.6H735.575V220.44H729.575V233.2C729.575 234.373 729.775 235.253 730.175 235.84C730.601 236.4 731.308 236.68 732.295 236.68C732.961 236.68 733.601 236.56 734.215 236.32C734.855 236.08 735.468 235.72 736.055 235.24L736.775 236.32C735.948 237.36 735.028 238.16 734.015 238.72C733.028 239.28 731.921 239.56 730.695 239.56Z" fill="#5C5F77"/>
<path d="M544.42 239V237.6L546.3 237.32C546.727 237.24 547.007 237.08 547.14 236.84C547.273 236.573 547.34 236.093 547.34 235.4V222.84C547.34 221.907 547.26 221.28 547.1 220.96C546.94 220.64 546.567 220.453 545.98 220.4L544.06 220.16L544.26 218.76L550.62 218.32L550.98 218.6L551.14 222.32H551.22C551.887 220.96 552.847 219.907 554.1 219.16C555.353 218.413 556.7 218.04 558.14 218.04C559.553 218.04 560.74 218.307 561.7 218.84C562.66 219.347 563.38 220.12 563.86 221.16C564.34 222.173 564.58 223.427 564.58 224.92V235.68C564.58 236.293 564.66 236.707 564.82 236.92C564.98 237.133 565.313 237.28 565.82 237.36L567.62 237.6V239H557.58V237.64L559.26 237.4C559.767 237.293 560.087 237.133 560.22 236.92C560.38 236.707 560.46 236.307 560.46 235.72V225.56C560.46 224.307 560.34 223.32 560.1 222.6C559.86 221.853 559.46 221.32 558.9 221C558.367 220.68 557.62 220.52 556.66 220.52C555.647 220.52 554.74 220.747 553.94 221.2C553.167 221.627 552.553 222.253 552.1 223.08C551.673 223.88 551.46 224.84 551.46 225.96V235.56C551.46 236.147 551.527 236.56 551.66 236.8C551.793 237.04 552.06 237.2 552.46 237.28L554.46 237.64V239H544.42ZM590.156 239.56C588.156 239.56 586.409 239.147 584.916 238.32C583.449 237.467 582.316 236.28 581.516 234.76C580.716 233.213 580.316 231.373 580.316 229.24C580.316 226.893 580.742 224.893 581.596 223.24C582.449 221.56 583.649 220.28 585.196 219.4C586.769 218.493 588.609 218.04 590.716 218.04C592.662 218.04 594.356 218.453 595.796 219.28C597.236 220.08 598.342 221.253 599.116 222.8C599.916 224.32 600.316 226.147 600.316 228.28C600.316 230.573 599.889 232.573 599.036 234.28C598.209 235.96 597.036 237.267 595.516 238.2C593.996 239.107 592.209 239.56 590.156 239.56ZM590.756 237.72C591.849 237.72 592.769 237.413 593.516 236.8C594.289 236.187 594.862 235.253 595.236 234C595.609 232.747 595.796 231.147 595.796 229.2C595.796 227.653 595.662 226.293 595.396 225.12C595.156 223.92 594.782 222.933 594.276 222.16C593.769 221.387 593.156 220.813 592.436 220.44C591.742 220.04 590.942 219.84 590.036 219.84C588.916 219.84 587.969 220.133 587.196 220.72C586.422 221.28 585.822 222.173 585.396 223.4C584.996 224.6 584.796 226.147 584.796 228.04C584.796 230.2 585.036 232 585.516 233.44C586.022 234.853 586.716 235.92 587.596 236.64C588.476 237.36 589.529 237.72 590.756 237.72ZM613.639 239V237.6L615.519 237.28C615.945 237.2 616.225 237.04 616.359 236.8C616.492 236.533 616.559 236.053 616.559 235.36V222.88C616.559 221.947 616.479 221.32 616.319 221C616.159 220.653 615.785 220.453 615.199 220.4L613.279 220.2L613.479 218.76L619.759 218.32L620.119 218.6L620.399 222.36H620.479C621.145 220.973 621.999 219.907 623.039 219.16C624.079 218.413 625.199 218.04 626.399 218.04C627.679 218.04 628.692 218.387 629.439 219.08C630.185 219.747 630.559 220.64 630.559 221.76C630.559 222.427 630.452 223 630.239 223.48C630.052 223.933 629.745 224.293 629.319 224.56C628.919 224.8 628.412 224.92 627.799 224.92C626.999 224.92 626.385 224.747 625.959 224.4C625.559 224.053 625.359 223.613 625.359 223.08C625.359 222.84 625.399 222.6 625.479 222.36C625.559 222.12 625.679 221.84 625.839 221.52C625.999 221.2 626.199 220.84 626.439 220.44C625.825 220.2 625.172 220.173 624.479 220.36C623.812 220.547 623.185 220.92 622.599 221.48C622.039 222.013 621.572 222.693 621.199 223.52C620.852 224.32 620.679 225.187 620.679 226.12V235.44C620.679 236.08 620.745 236.52 620.879 236.76C621.012 236.973 621.292 237.107 621.719 237.16L625.039 237.6V239H613.639ZM642.576 239V237.56L644.736 237.24C645.216 237.187 645.522 237.027 645.656 236.76C645.789 236.493 645.856 236 645.856 235.28V222.96C645.856 222 645.776 221.36 645.616 221.04C645.456 220.72 645.069 220.52 644.456 220.44L642.576 220.24L642.736 218.76L649.616 218.44L650.016 218.64V235.44C650.016 236 650.082 236.427 650.216 236.72C650.349 236.987 650.669 237.16 651.176 237.24L653.336 237.6V239H642.576ZM647.376 214.28C646.549 214.28 645.869 214.027 645.336 213.52C644.802 213.013 644.536 212.347 644.536 211.52C644.536 210.72 644.802 210.067 645.336 209.56C645.869 209.027 646.549 208.76 647.376 208.76C648.256 208.76 648.949 209.013 649.456 209.52C649.989 210.027 650.256 210.693 650.256 211.52C650.256 212.32 649.989 212.987 649.456 213.52C648.922 214.027 648.229 214.28 647.376 214.28ZM684.935 239.36C684.268 239.36 683.668 239.267 683.135 239.08C682.628 238.92 682.135 238.627 681.655 238.2C681.175 237.747 680.628 237.133 680.015 236.36L673.735 228.2V227.88L680.415 221.8C680.788 221.48 680.975 221.173 680.975 220.88C680.975 220.56 680.762 220.36 680.335 220.28L678.775 220L679.015 218.6H687.175V219.96L685.895 220.32C685.495 220.427 685.082 220.587 684.655 220.8C684.255 220.987 683.762 221.333 683.175 221.84L677.575 226.72L684.095 234.88C684.628 235.573 685.108 236.08 685.535 236.4C685.988 236.72 686.495 236.88 687.055 236.88C687.268 236.88 687.508 236.853 687.775 236.8C688.042 236.747 688.362 236.653 688.735 236.52L689.055 237.6C688.522 238.133 687.882 238.56 687.135 238.88C686.415 239.2 685.682 239.36 684.935 239.36ZM666.015 239V237.6L667.975 237.28C668.508 237.227 668.842 237.067 668.975 236.8C669.135 236.533 669.215 236.027 669.215 235.28V212.64C669.215 211.76 669.122 211.16 668.935 210.84C668.775 210.52 668.348 210.32 667.655 210.24L665.855 210.04L666.015 208.56L672.975 208.36L673.375 208.68V235.44C673.375 236.027 673.428 236.467 673.535 236.76C673.668 237.027 673.975 237.2 674.455 237.28L675.815 237.56V239H666.015ZM700.193 239V237.56L702.353 237.24C702.833 237.187 703.139 237.027 703.273 236.76C703.406 236.493 703.473 236 703.473 235.28V222.96C703.473 222 703.393 221.36 703.233 221.04C703.073 220.72 702.686 220.52 702.073 220.44L700.193 220.24L700.353 218.76L707.233 218.44L707.633 218.64V235.44C707.633 236 707.699 236.427 707.833 236.72C707.966 236.987 708.286 237.16 708.793 237.24L710.953 237.6V239H700.193ZM704.993 214.28C704.166 214.28 703.486 214.027 702.953 213.52C702.419 213.013 702.153 212.347 702.153 211.52C702.153 210.72 702.419 210.067 702.953 209.56C703.486 209.027 704.166 208.76 704.993 208.76C705.873 208.76 706.566 209.013 707.073 209.52C707.606 210.027 707.873 210.693 707.873 211.52C707.873 212.32 707.606 212.987 707.073 213.52C706.539 214.027 705.846 214.28 704.993 214.28ZM730.695 239.56C729.548 239.56 728.575 239.36 727.775 238.96C727.001 238.533 726.415 237.88 726.015 237C725.615 236.12 725.415 234.987 725.415 233.6V220.44H722.415V218.96C723.401 218.853 724.201 218.573 724.815 218.12C725.455 217.667 725.948 216.96 726.295 216C726.641 215.04 726.868 213.773 726.975 212.2L729.135 211.92L729.575 212.16V218.6H735.575V220.44H729.575V233.2C729.575 234.373 729.775 235.253 730.175 235.84C730.601 236.4 731.308 236.68 732.295 236.68C732.961 236.68 733.601 236.56 734.215 236.32C734.855 236.08 735.468 235.72 736.055 235.24L736.775 236.32C735.948 237.36 735.028 238.16 734.015 238.72C733.028 239.28 731.921 239.56 730.695 239.56Z" fill="black" fill-opacity="0.25"/>
<g opacity="0.8">
<path d="M348.512 291.22C351.86 291.22 353.756 292.444 353.78 294.952L351.368 295.132C351.224 293.812 350.264 293.152 348.332 293.152C346.592 293.152 345.536 293.668 345.536 294.712C345.536 295.72 346.556 296.092 349.196 296.668C352.268 297.328 353.984 298.048 353.984 300.328C353.984 302.728 352.052 304.276 348.308 304.276C344.852 304.276 342.956 303.256 342.428 300.4L344.876 300.1C345.38 302.02 346.712 302.296 348.44 302.296C350.504 302.296 351.308 301.516 351.308 300.628C351.308 299.608 350.252 299.26 347.468 298.66C344.636 298.06 342.992 297.136 342.992 294.928C342.992 292.648 344.744 291.22 348.512 291.22ZM365.375 291.22C368.483 291.22 370.355 292.24 370.355 295.156V301.132C370.355 301.984 370.655 302.2 371.735 302.068V304C371.123 304.168 370.559 304.252 370.043 304.252C368.459 304.252 367.955 303.472 367.859 302.464H367.595C366.647 303.412 365.363 304.288 363.467 304.288C361.223 304.288 359.771 303.028 359.771 300.928C359.771 297.424 363.779 296.956 367.691 297.004V295.3C367.691 293.512 366.659 293.068 365.171 293.08C363.707 293.08 362.639 293.548 362.627 295L362.615 295.504H360.191V294.868C360.191 292.732 361.643 291.22 365.375 291.22ZM362.543 300.58C362.543 301.696 363.371 302.32 364.739 302.32C365.867 302.32 366.815 301.888 367.691 301.252V298.492C367.355 298.456 367.019 298.432 366.683 298.432C364.079 298.432 362.543 299.056 362.543 300.58ZM388.37 304H385.706V295.672C385.706 293.86 384.782 293.38 383.63 293.38C382.31 293.38 381.218 294.028 380.306 295V304H377.642V291.508H379.934L380.126 293.32H380.474C381.542 292.18 382.826 291.22 384.866 291.22C387.062 291.22 388.37 292.324 388.37 294.976V304ZM394.156 297.736C394.156 293.452 396.724 291.22 400.552 291.22C404.104 291.22 406.18 293.08 406.18 296.824V297.964H396.868C396.94 300.736 398.224 302.152 400.456 302.152C401.884 302.152 402.988 301.576 403.552 300.28L406.132 300.676C405.268 303.148 403.084 304.288 400.444 304.288C396.724 304.288 394.156 302.044 394.156 297.736ZM397 296.284H403.576C403.576 294.256 402.28 293.344 400.468 293.344C398.644 293.344 397.384 294.292 397 296.284ZM428.722 297.784C428.722 293.824 430.426 291.232 433.618 291.232C435.442 291.232 436.654 292.06 437.398 293.116H437.554V285.64H440.218V304H437.926L437.746 302.404H437.41C436.558 303.46 435.322 304.3 433.522 304.3C430.354 304.3 428.722 301.672 428.722 297.784ZM431.446 297.784C431.446 300.664 432.55 302.056 434.686 302.056C435.682 302.056 436.63 301.756 437.554 300.94V294.568C436.63 293.752 435.67 293.452 434.71 293.452C432.598 293.452 431.446 294.844 431.446 297.784ZM446.005 297.736C446.005 293.452 448.573 291.22 452.401 291.22C455.953 291.22 458.029 293.08 458.029 296.824V297.964H448.717C448.789 300.736 450.073 302.152 452.305 302.152C453.733 302.152 454.837 301.576 455.401 300.28L457.981 300.676C457.117 303.148 454.933 304.288 452.293 304.288C448.573 304.288 446.005 302.044 446.005 297.736ZM448.849 296.284H455.425C455.425 294.256 454.129 293.344 452.317 293.344C450.493 293.344 449.233 294.292 448.849 296.284ZM475.504 287.344C474.568 287.128 473.728 286.996 472.756 286.996C470.692 286.996 469.672 287.596 469.672 290.272V291.508H475.084V293.668H469.672V301.84H473.836V304H463.876V301.84H467.008V293.668H463.156V291.508H467.008V290.692C467.008 286.276 469.012 284.668 472.66 284.668C473.68 284.668 474.616 284.8 475.504 285.052V287.344ZM486.354 291.22C489.462 291.22 491.334 292.24 491.334 295.156V301.132C491.334 301.984 491.634 302.2 492.714 302.068V304C492.102 304.168 491.538 304.252 491.022 304.252C489.438 304.252 488.934 303.472 488.838 302.464H488.574C487.626 303.412 486.342 304.288 484.446 304.288C482.202 304.288 480.75 303.028 480.75 300.928C480.75 297.424 484.758 296.956 488.67 297.004V295.3C488.67 293.512 487.638 293.068 486.15 293.08C484.686 293.08 483.618 293.548 483.606 295L483.594 295.504H481.17V294.868C481.17 292.732 482.622 291.22 486.354 291.22ZM483.522 300.58C483.522 301.696 484.35 302.32 485.718 302.32C486.846 302.32 487.794 301.888 488.67 301.252V298.492C488.334 298.456 487.998 298.432 487.662 298.432C485.058 298.432 483.522 299.056 483.522 300.58ZM498.621 291.508H501.285V299.824C501.285 301.648 502.209 302.128 503.361 302.128C504.693 302.128 505.785 301.492 506.685 300.508V291.508H509.349V304H507.057L506.865 302.176H506.517C505.461 303.328 504.177 304.276 502.137 304.276C499.929 304.276 498.621 303.172 498.621 300.532V291.508ZM515.664 304V301.84H519.936L519.948 287.776H515.676V285.64L522.276 285.352L522.612 285.676L522.6 301.84H526.872V304H515.664ZM535.719 299.92V293.668H532.287V291.508H535.719V287.764H538.383V291.508H543.807V293.668H538.383V300.028C538.383 301.564 539.103 302.2 540.183 302.2C541.299 302.2 541.995 301.516 541.995 300.04V299.368H543.939V299.908C543.939 302.812 542.655 304.276 539.811 304.276C537.087 304.276 535.719 302.968 535.719 299.92ZM555.906 291.22C559.254 291.22 561.15 292.444 561.174 294.952L558.762 295.132C558.618 293.812 557.658 293.152 555.726 293.152C553.986 293.152 552.93 293.668 552.93 294.712C552.93 295.72 553.95 296.092 556.59 296.668C559.662 297.328 561.378 298.048 561.378 300.328C561.378 302.728 559.446 304.276 555.702 304.276C552.246 304.276 550.35 303.256 549.822 300.4L552.27 300.1C552.774 302.02 554.106 302.296 555.834 302.296C557.898 302.296 558.702 301.516 558.702 300.628C558.702 299.608 557.646 299.26 554.862 298.66C552.03 298.06 550.386 297.136 550.386 294.928C550.386 292.648 552.138 291.22 555.906 291.22Z" fill="#40A02B"/>
<path d="M579.452 298.396C578.132 298.396 577.064 297.52 577.064 296.08C577.064 294.628 578.132 293.776 579.452 293.776C580.76 293.776 581.816 294.628 581.816 296.08C581.816 297.52 580.76 298.396 579.452 298.396Z" fill="#BAC2DE"/>
<path d="M596.836 304V301.84H601.108V293.644H596.836V291.508L603.448 291.22L603.772 291.544V301.84H608.044V304H596.836ZM600.088 286.996C600.088 285.928 600.856 285.28 601.96 285.28C603.076 285.28 603.832 285.928 603.832 286.996C603.832 288.064 603.076 288.736 601.96 288.736C600.856 288.736 600.088 288.064 600.088 286.996ZM625.087 304H622.423V295.672C622.423 293.86 621.499 293.38 620.347 293.38C619.027 293.38 617.935 294.028 617.023 295V304H614.359V291.508H616.651L616.843 293.32H617.191C618.259 292.18 619.543 291.22 621.583 291.22C623.779 291.22 625.087 292.324 625.087 294.976V304ZM637.078 291.22C640.426 291.22 642.322 292.444 642.346 294.952L639.934 295.132C639.79 293.812 638.83 293.152 636.898 293.152C635.158 293.152 634.102 293.668 634.102 294.712C634.102 295.72 635.122 296.092 637.762 296.668C640.834 297.328 642.55 298.048 642.55 300.328C642.55 302.728 640.618 304.276 636.874 304.276C633.418 304.276 631.522 303.256 630.994 300.4L633.442 300.1C633.946 302.02 635.278 302.296 637.006 302.296C639.07 302.296 639.874 301.516 639.874 300.628C639.874 299.608 638.818 299.26 636.034 298.66C633.202 298.06 631.558 297.136 631.558 294.928C631.558 292.648 633.31 291.22 637.078 291.22ZM653.94 291.22C657.048 291.22 658.92 292.24 658.92 295.156V301.132C658.92 301.984 659.22 302.2 660.3 302.068V304C659.688 304.168 659.124 304.252 658.608 304.252C657.024 304.252 656.52 303.472 656.424 302.464H656.16C655.212 303.412 653.928 304.288 652.032 304.288C649.788 304.288 648.336 303.028 648.336 300.928C648.336 297.424 652.344 296.956 656.256 297.004V295.3C656.256 293.512 655.224 293.068 653.736 293.08C652.272 293.08 651.204 293.548 651.192 295L651.18 295.504H648.756V294.868C648.756 292.732 650.208 291.22 653.94 291.22ZM651.108 300.58C651.108 301.696 651.936 302.32 653.304 302.32C654.432 302.32 655.38 301.888 656.256 301.252V298.492C655.92 298.456 655.584 298.432 655.248 298.432C652.644 298.432 651.108 299.056 651.108 300.58ZM676.935 304H674.271V295.672C674.271 293.86 673.347 293.38 672.195 293.38C670.875 293.38 669.783 294.028 668.871 295V304H666.207V291.508H668.499L668.691 293.32H669.039C670.107 292.18 671.391 291.22 673.431 291.22C675.627 291.22 676.935 292.324 676.935 294.976V304ZM682.722 297.736C682.722 293.452 685.29 291.22 689.118 291.22C692.67 291.22 694.746 293.08 694.746 296.824V297.964H685.434C685.506 300.736 686.79 302.152 689.022 302.152C690.45 302.152 691.554 301.576 692.118 300.28L694.698 300.676C693.834 303.148 691.65 304.288 689.01 304.288C685.29 304.288 682.722 302.044 682.722 297.736ZM685.566 296.284H692.142C692.142 294.256 690.846 293.344 689.034 293.344C687.21 293.344 685.95 294.292 685.566 296.284ZM729.396 300.136C728.688 303.028 726.312 304.288 723.528 304.288C719.796 304.288 717.288 302.044 717.288 297.736C717.288 293.308 719.964 291.22 723.66 291.22C726.768 291.22 729.096 292.66 729.396 295.708L726.792 295.936C726.516 294.184 725.304 293.344 723.588 293.344C721.236 293.344 720.012 294.892 720.012 297.736C720.012 300.724 721.356 302.152 723.552 302.152C725.256 302.152 726.36 301.3 726.828 299.764L729.396 300.136ZM735.338 291.508H738.002V299.824C738.002 301.648 738.926 302.128 740.078 302.128C741.41 302.128 742.502 301.492 743.402 300.508V291.508H746.066V304H743.774L743.582 302.176H743.234C742.178 303.328 740.894 304.276 738.854 304.276C736.646 304.276 735.338 303.172 735.338 300.532V291.508ZM758.057 291.22C761.405 291.22 763.301 292.444 763.325 294.952L760.913 295.132C760.769 293.812 759.809 293.152 757.877 293.152C756.137 293.152 755.081 293.668 755.081 294.712C755.081 295.72 756.101 296.092 758.741 296.668C761.813 297.328 763.529 298.048 763.529 300.328C763.529 302.728 761.597 304.276 757.853 304.276C754.397 304.276 752.501 303.256 751.973 300.4L754.421 300.1C754.925 302.02 756.257 302.296 757.985 302.296C760.049 302.296 760.853 301.516 760.853 300.628C760.853 299.608 759.797 299.26 757.013 298.66C754.181 298.06 752.537 297.136 752.537 294.928C752.537 292.648 754.289 291.22 758.057 291.22ZM772.436 299.92V293.668H769.004V291.508H772.436V287.764H775.1V291.508H780.524V293.668H775.1V300.028C775.1 301.564 775.82 302.2 776.9 302.2C778.016 302.2 778.712 301.516 778.712 300.04V299.368H780.656V299.908C780.656 302.812 779.372 304.276 776.528 304.276C773.804 304.276 772.436 302.968 772.436 299.92ZM798.683 297.784C798.683 302.224 795.923 304.288 792.551 304.288C789.191 304.288 786.419 302.224 786.419 297.784C786.419 293.344 789.191 291.22 792.551 291.22C795.923 291.22 798.683 293.344 798.683 297.784ZM789.131 297.784C789.131 300.892 790.559 302.152 792.551 302.152C794.555 302.152 795.971 300.892 795.971 297.784C795.971 294.664 794.555 293.344 792.551 293.344C790.559 293.344 789.131 294.664 789.131 297.784ZM812.042 304H809.594V294.868C809.594 293.764 809.006 293.452 808.358 293.452C807.578 293.452 806.942 293.92 806.462 294.568V304H804.026V291.508H806.102L806.282 293.368H806.486C807.074 292.144 808.154 291.232 809.618 291.232C810.938 291.232 811.802 291.916 811.994 293.368H812.102C812.678 292.144 813.722 291.232 815.186 291.232C816.698 291.232 817.61 292.12 817.61 294.028L817.622 304H815.174V294.868C815.174 293.764 814.586 293.452 813.926 293.452C813.146 293.452 812.51 293.908 812.03 294.544L812.042 304ZM823.613 304V301.84H826.841V293.644H823.613V291.508L829.169 291.22L829.505 291.544V301.84H832.721V304H823.613ZM825.833 287.068C825.833 286 826.601 285.352 827.705 285.352C828.821 285.352 829.577 286 829.577 287.068C829.577 288.136 828.821 288.808 827.705 288.808C826.601 288.808 825.833 288.136 825.833 287.068ZM838.915 291.508H849.463V293.092L842.539 301.84H849.895V304H838.915V302.404L845.827 293.668H838.915V291.508ZM861.334 291.22C864.442 291.22 866.314 292.24 866.314 295.156V301.132C866.314 301.984 866.614 302.2 867.694 302.068V304C867.082 304.168 866.518 304.252 866.002 304.252C864.418 304.252 863.914 303.472 863.818 302.464H863.554C862.606 303.412 861.322 304.288 859.426 304.288C857.182 304.288 855.73 303.028 855.73 300.928C855.73 297.424 859.738 296.956 863.65 297.004V295.3C863.65 293.512 862.618 293.068 861.13 293.08C859.666 293.08 858.598 293.548 858.586 295L858.574 295.504H856.15V294.868C856.15 292.732 857.602 291.22 861.334 291.22ZM858.502 300.58C858.502 301.696 859.33 302.32 860.698 302.32C861.826 302.32 862.774 301.888 863.65 301.252V298.492C863.314 298.456 862.978 298.432 862.642 298.432C860.038 298.432 858.502 299.056 858.502 300.58ZM876.133 299.92V293.668H872.701V291.508H876.133V287.764H878.797V291.508H884.221V293.668H878.797V300.028C878.797 301.564 879.517 302.2 880.597 302.2C881.713 302.2 882.409 301.516 882.409 300.04V299.368H884.353V299.908C884.353 302.812 883.069 304.276 880.225 304.276C877.501 304.276 876.133 302.968 876.133 299.92ZM890.644 304V301.84H894.916V293.644H890.644V291.508L897.256 291.22L897.58 291.544V301.84H901.852V304H890.644ZM893.896 286.996C893.896 285.928 894.664 285.28 895.768 285.28C896.884 285.28 897.64 285.928 897.64 286.996C897.64 288.064 896.884 288.736 895.768 288.736C894.664 288.736 893.896 288.064 893.896 286.996ZM919.663 297.784C919.663 302.224 916.903 304.288 913.531 304.288C910.171 304.288 907.399 302.224 907.399 297.784C907.399 293.344 910.171 291.22 913.531 291.22C916.903 291.22 919.663 293.344 919.663 297.784ZM910.111 297.784C910.111 300.892 911.539 302.152 913.531 302.152C915.535 302.152 916.951 300.892 916.951 297.784C916.951 294.664 915.535 293.344 913.531 293.344C911.539 293.344 910.111 294.664 910.111 297.784ZM936.177 304H933.513V295.672C933.513 293.86 932.589 293.38 931.437 293.38C930.117 293.38 929.025 294.028 928.113 295V304H925.449V291.508H927.741L927.933 293.32H928.281C929.349 292.18 930.633 291.22 932.673 291.22C934.869 291.22 936.177 292.324 936.177 294.976V304Z" fill="#179299"/>
</g>
</svg>
