<svg width="1280" height="360" viewBox="0 0 1280 360" fill="none" xmlns="http://www.w3.org/2000/svg">
<path d="M603.545 124.705V66.5227H617V70.9773H608.636V120.25H617V124.705H603.545Z" fill="#32C572"/>
<path d="M643.52 110.25V107.018L647.84 105.258V86.666C647.84 82.602 645.728 81.194 642.912 81.194C640.704 81.194 637.696 81.898 634.272 83.786V105.322L638.496 107.018V110.25H624V107.018L628.32 105.258V83.338L622.72 82.474V78.922L633.088 76.522L633.92 76.874V80.554C638.112 77.898 641.952 76.362 645.696 76.362C651.168 76.362 653.792 79.466 653.792 85.418V105.322L658.016 107.018V110.25H643.52Z" fill="#E6EBF9"/>
<path d="M675.636 66.5227V124.705H662.182V120.25H670.545V70.9773H662.182V66.5227H675.636Z" fill="#32C572"/>
<path d="M544.42 239V237.6L546.3 237.32C546.727 237.24 547.007 237.08 547.14 236.84C547.273 236.573 547.34 236.093 547.34 235.4V222.84C547.34 221.907 547.26 221.28 547.1 220.96C546.94 220.64 546.567 220.453 545.98 220.4L544.06 220.16L544.26 218.76L550.62 218.32L550.98 218.6L551.14 222.32H551.22C551.887 220.96 552.847 219.907 554.1 219.16C555.353 218.413 556.7 218.04 558.14 218.04C559.553 218.04 560.74 218.307 561.7 218.84C562.66 219.347 563.38 220.12 563.86 221.16C564.34 222.173 564.58 223.427 564.58 224.92V235.68C564.58 236.293 564.66 236.707 564.82 236.92C564.98 237.133 565.313 237.28 565.82 237.36L567.62 237.6V239H557.58V237.64L559.26 237.4C559.767 237.293 560.087 237.133 560.22 236.92C560.38 236.707 560.46 236.307 560.46 235.72V225.56C560.46 224.307 560.34 223.32 560.1 222.6C559.86 221.853 559.46 221.32 558.9 221C558.367 220.68 557.62 220.52 556.66 220.52C555.647 220.52 554.74 220.747 553.94 221.2C553.167 221.627 552.553 222.253 552.1 223.08C551.673 223.88 551.46 224.84 551.46 225.96V235.56C551.46 236.147 551.527 236.56 551.66 236.8C551.793 237.04 552.06 237.2 552.46 237.28L554.46 237.64V239H544.42ZM590.156 239.56C588.156 239.56 586.409 239.147 584.916 238.32C583.449 237.467 582.316 236.28 581.516 234.76C580.716 233.213 580.316 231.373 580.316 229.24C580.316 226.893 580.742 224.893 581.596 223.24C582.449 221.56 583.649 220.28 585.196 219.4C586.769 218.493 588.609 218.04 590.716 218.04C592.662 218.04 594.356 218.453 595.796 219.28C597.236 220.08 598.342 221.253 599.116 222.8C599.916 224.32 600.316 226.147 600.316 228.28C600.316 230.573 599.889 232.573 599.036 234.28C598.209 235.96 597.036 237.267 595.516 238.2C593.996 239.107 592.209 239.56 590.156 239.56ZM590.756 237.72C591.849 237.72 592.769 237.413 593.516 236.8C594.289 236.187 594.862 235.253 595.236 234C595.609 232.747 595.796 231.147 595.796 229.2C595.796 227.653 595.662 226.293 595.396 225.12C595.156 223.92 594.782 222.933 594.276 222.16C593.769 221.387 593.156 220.813 592.436 220.44C591.742 220.04 590.942 219.84 590.036 219.84C588.916 219.84 587.969 220.133 587.196 220.72C586.422 221.28 585.822 222.173 585.396 223.4C584.996 224.6 584.796 226.147 584.796 228.04C584.796 230.2 585.036 232 585.516 233.44C586.022 234.853 586.716 235.92 587.596 236.64C588.476 237.36 589.529 237.72 590.756 237.72ZM613.639 239V237.6L615.519 237.28C615.945 237.2 616.225 237.04 616.359 236.8C616.492 236.533 616.559 236.053 616.559 235.36V222.88C616.559 221.947 616.479 221.32 616.319 221C616.159 220.653 615.785 220.453 615.199 220.4L613.279 220.2L613.479 218.76L619.759 218.32L620.119 218.6L620.399 222.36H620.479C621.145 220.973 621.999 219.907 623.039 219.16C624.079 218.413 625.199 218.04 626.399 218.04C627.679 218.04 628.692 218.387 629.439 219.08C630.185 219.747 630.559 220.64 630.559 221.76C630.559 222.427 630.452 223 630.239 223.48C630.052 223.933 629.745 224.293 629.319 224.56C628.919 224.8 628.412 224.92 627.799 224.92C626.999 224.92 626.385 224.747 625.959 224.4C625.559 224.053 625.359 223.613 625.359 223.08C625.359 222.84 625.399 222.6 625.479 222.36C625.559 222.12 625.679 221.84 625.839 221.52C625.999 221.2 626.199 220.84 626.439 220.44C625.825 220.2 625.172 220.173 624.479 220.36C623.812 220.547 623.185 220.92 622.599 221.48C622.039 222.013 621.572 222.693 621.199 223.52C620.852 224.32 620.679 225.187 620.679 226.12V235.44C620.679 236.08 620.745 236.52 620.879 236.76C621.012 236.973 621.292 237.107 621.719 237.16L625.039 237.6V239H613.639ZM642.576 239V237.56L644.736 237.24C645.216 237.187 645.522 237.027 645.656 236.76C645.789 236.493 645.856 236 645.856 235.28V222.96C645.856 222 645.776 221.36 645.616 221.04C645.456 220.72 645.069 220.52 644.456 220.44L642.576 220.24L642.736 218.76L649.616 218.44L650.016 218.64V235.44C650.016 236 650.082 236.427 650.216 236.72C650.349 236.987 650.669 237.16 651.176 237.24L653.336 237.6V239H642.576ZM647.376 214.28C646.549 214.28 645.869 214.027 645.336 213.52C644.802 213.013 644.536 212.347 644.536 211.52C644.536 210.72 644.802 210.067 645.336 209.56C645.869 209.027 646.549 208.76 647.376 208.76C648.256 208.76 648.949 209.013 649.456 209.52C649.989 210.027 650.256 210.693 650.256 211.52C650.256 212.32 649.989 212.987 649.456 213.52C648.922 214.027 648.229 214.28 647.376 214.28ZM684.935 239.36C684.268 239.36 683.668 239.267 683.135 239.08C682.628 238.92 682.135 238.627 681.655 238.2C681.175 237.747 680.628 237.133 680.015 236.36L673.735 228.2V227.88L680.415 221.8C680.788 221.48 680.975 221.173 680.975 220.88C680.975 220.56 680.762 220.36 680.335 220.28L678.775 220L679.015 218.6H687.175V219.96L685.895 220.32C685.495 220.427 685.082 220.587 684.655 220.8C684.255 220.987 683.762 221.333 683.175 221.84L677.575 226.72L684.095 234.88C684.628 235.573 685.108 236.08 685.535 236.4C685.988 236.72 686.495 236.88 687.055 236.88C687.268 236.88 687.508 236.853 687.775 236.8C688.042 236.747 688.362 236.653 688.735 236.52L689.055 237.6C688.522 238.133 687.882 238.56 687.135 238.88C686.415 239.2 685.682 239.36 684.935 239.36ZM666.015 239V237.6L667.975 237.28C668.508 237.227 668.842 237.067 668.975 236.8C669.135 236.533 669.215 236.027 669.215 235.28V212.64C669.215 211.76 669.122 211.16 668.935 210.84C668.775 210.52 668.348 210.32 667.655 210.24L665.855 210.04L666.015 208.56L672.975 208.36L673.375 208.68V235.44C673.375 236.027 673.428 236.467 673.535 236.76C673.668 237.027 673.975 237.2 674.455 237.28L675.815 237.56V239H666.015ZM700.193 239V237.56L702.353 237.24C702.833 237.187 703.139 237.027 703.273 236.76C703.406 236.493 703.473 236 703.473 235.28V222.96C703.473 222 703.393 221.36 703.233 221.04C703.073 220.72 702.686 220.52 702.073 220.44L700.193 220.24L700.353 218.76L707.233 218.44L707.633 218.64V235.44C707.633 236 707.699 236.427 707.833 236.72C707.966 236.987 708.286 237.16 708.793 237.24L710.953 237.6V239H700.193ZM704.993 214.28C704.166 214.28 703.486 214.027 702.953 213.52C702.419 213.013 702.153 212.347 702.153 211.52C702.153 210.72 702.419 210.067 702.953 209.56C703.486 209.027 704.166 208.76 704.993 208.76C705.873 208.76 706.566 209.013 707.073 209.52C707.606 210.027 707.873 210.693 707.873 211.52C707.873 212.32 707.606 212.987 707.073 213.52C706.539 214.027 705.846 214.28 704.993 214.28ZM730.695 239.56C729.548 239.56 728.575 239.36 727.775 238.96C727.001 238.533 726.415 237.88 726.015 237C725.615 236.12 725.415 234.987 725.415 233.6V220.44H722.415V218.96C723.401 218.853 724.201 218.573 724.815 218.12C725.455 217.667 725.948 216.96 726.295 216C726.641 215.04 726.868 213.773 726.975 212.2L729.135 211.92L729.575 212.16V218.6H735.575V220.44H729.575V233.2C729.575 234.373 729.775 235.253 730.175 235.84C730.601 236.4 731.308 236.68 732.295 236.68C732.961 236.68 733.601 236.56 734.215 236.32C734.855 236.08 735.468 235.72 736.055 235.24L736.775 236.32C735.948 237.36 735.028 238.16 734.015 238.72C733.028 239.28 731.921 239.56 730.695 239.56Z" fill="#BAC2DE"/>
<g opacity="0.8">
<path d="M348.488 291.388C351.74 291.388 353.612 292.564 353.708 295.06L351.644 295.204C351.488 293.8 350.408 293.08 348.332 293.08C346.46 293.08 345.284 293.632 345.284 294.796C345.284 295.852 346.28 296.284 349.028 296.848C352.316 297.52 353.852 298.276 353.852 300.424C353.852 302.74 352.016 304.276 348.392 304.276C344.984 304.276 343.04 303.304 342.488 300.424L344.576 300.16C345.152 302.32 346.724 302.524 348.5 302.524C350.708 302.524 351.584 301.648 351.584 300.676C351.584 299.596 350.552 299.212 347.624 298.612C344.66 298 343.112 297.112 343.112 295C343.112 292.804 344.78 291.388 348.488 291.388ZM365.435 291.388C368.447 291.388 370.211 292.384 370.211 295.288V301.396C370.211 302.284 370.547 302.512 371.675 302.344V304C371.111 304.168 370.595 304.24 370.139 304.24C368.651 304.24 368.159 303.448 368.075 302.464H367.859C366.863 303.364 365.603 304.288 363.611 304.288C361.331 304.288 359.879 303.064 359.879 300.964C359.879 297.52 363.755 297.076 367.943 297.1V295.42C367.943 293.44 366.827 292.996 365.195 293.008C363.635 293.02 362.447 293.464 362.423 295.108V295.636H360.299V294.988C360.299 292.876 361.751 291.388 365.435 291.388ZM362.255 300.688C362.255 301.912 363.143 302.572 364.631 302.572C365.927 302.572 366.935 302.068 367.943 301.336V298.432C367.559 298.396 367.163 298.372 366.803 298.372C363.971 298.372 362.255 298.996 362.255 300.688ZM388.178 304H385.91V295.78C385.91 293.776 384.866 293.248 383.618 293.248C382.178 293.248 381.026 293.956 380.102 295.024V304H377.834V291.676H379.754L379.958 293.44H380.258C381.23 292.396 382.514 291.388 384.602 291.388C386.798 291.388 388.178 292.504 388.178 295.18V304ZM394.276 297.82C394.276 293.656 396.76 291.388 400.552 291.388C404.044 291.388 406.084 293.212 406.084 296.836V297.916H396.604C396.64 300.916 398.068 302.428 400.48 302.428C402.052 302.428 403.24 301.792 403.828 300.388L406.036 300.76C405.196 303.064 403.18 304.288 400.468 304.288C396.784 304.288 394.276 302.056 394.276 297.82ZM396.724 296.404H403.864C403.852 294.208 402.412 293.248 400.48 293.248C398.464 293.248 397.12 294.316 396.724 296.404ZM428.842 297.868C428.842 293.848 430.666 291.388 433.774 291.388C435.586 291.388 436.81 292.216 437.602 293.308H437.758V285.64H440.026V304H438.106L437.926 302.38H437.614C436.726 303.472 435.466 304.3 433.678 304.3C430.558 304.3 428.842 301.78 428.842 297.868ZM431.182 297.868C431.182 300.844 432.37 302.368 434.602 302.368C435.706 302.368 436.726 301.984 437.758 300.952V294.712C436.75 293.68 435.718 293.308 434.638 293.308C432.442 293.308 431.182 294.796 431.182 297.868ZM446.125 297.82C446.125 293.656 448.609 291.388 452.401 291.388C455.893 291.388 457.933 293.212 457.933 296.836V297.916H448.453C448.489 300.916 449.917 302.428 452.329 302.428C453.901 302.428 455.089 301.792 455.677 300.388L457.885 300.76C457.045 303.064 455.029 304.288 452.317 304.288C448.633 304.288 446.125 302.056 446.125 297.82ZM448.573 296.404H455.713C455.701 294.208 454.261 293.248 452.329 293.248C450.313 293.248 448.969 294.316 448.573 296.404ZM475.432 287.092C474.508 286.876 473.68 286.744 472.684 286.744C470.596 286.744 469.384 287.32 469.384 290.284V291.676H474.988V293.512H469.384V302.164H473.752V304H463.852V302.164H467.116V293.512H463.156V291.676H467.116V290.488C467.116 286.216 469.192 284.728 472.624 284.728C473.596 284.728 474.532 284.848 475.432 285.112V287.092ZM486.414 291.388C489.426 291.388 491.19 292.384 491.19 295.288V301.396C491.19 302.284 491.526 302.512 492.654 302.344V304C492.09 304.168 491.574 304.24 491.118 304.24C489.63 304.24 489.138 303.448 489.054 302.464H488.838C487.842 303.364 486.582 304.288 484.59 304.288C482.31 304.288 480.858 303.064 480.858 300.964C480.858 297.52 484.734 297.076 488.922 297.1V295.42C488.922 293.44 487.806 292.996 486.174 293.008C484.614 293.02 483.426 293.464 483.402 295.108V295.636H481.278V294.988C481.278 292.876 482.73 291.388 486.414 291.388ZM483.234 300.688C483.234 301.912 484.122 302.572 485.61 302.572C486.906 302.572 487.914 302.068 488.922 301.336V298.432C488.538 298.396 488.142 298.372 487.782 298.372C484.95 298.372 483.234 298.996 483.234 300.688ZM498.813 291.676H501.081V299.884C501.081 301.9 502.125 302.416 503.373 302.416C504.813 302.416 505.965 301.72 506.889 300.652V291.676H509.157V304H507.237L507.033 302.236H506.733C505.761 303.268 504.477 304.276 502.389 304.276C500.193 304.276 498.813 303.16 498.813 300.496V291.676ZM515.76 304V302.164H520.128L520.14 287.44H515.76V285.64L522.108 285.376L522.408 285.652V302.164H526.776V304H515.76ZM535.863 299.884V293.512H532.287V291.676H535.863V287.812H538.143V291.676H543.807V293.512H538.143V300.028C538.143 301.732 538.887 302.488 540.147 302.488C541.467 302.488 542.175 301.66 542.175 300.028V299.428H543.891V299.872C543.891 302.752 542.727 304.276 539.871 304.276C537.207 304.276 535.863 302.968 535.863 299.884ZM555.882 291.388C559.134 291.388 561.006 292.564 561.102 295.06L559.038 295.204C558.882 293.8 557.802 293.08 555.726 293.08C553.854 293.08 552.678 293.632 552.678 294.796C552.678 295.852 553.674 296.284 556.422 296.848C559.71 297.52 561.246 298.276 561.246 300.424C561.246 302.74 559.41 304.276 555.786 304.276C552.378 304.276 550.434 303.304 549.882 300.424L551.97 300.16C552.546 302.32 554.118 302.524 555.894 302.524C558.102 302.524 558.978 301.648 558.978 300.676C558.978 299.596 557.946 299.212 555.018 298.612C552.054 298 550.506 297.112 550.506 295C550.506 292.804 552.174 291.388 555.882 291.388Z" fill="#A6E3A1"/>
<path d="M579.452 298.396C578.132 298.396 577.064 297.52 577.064 296.08C577.064 294.628 578.132 293.776 579.452 293.776C580.76 293.776 581.816 294.628 581.816 296.08C581.816 297.52 580.76 298.396 579.452 298.396Z" fill="#BAC2DE"/>
<path d="M596.932 304V302.164H601.3V293.476H596.932V291.676L603.28 291.4L603.58 291.688V302.164H607.948V304H596.932ZM600.316 287.02C600.316 286.06 601 285.484 601.996 285.484C602.98 285.484 603.664 286.06 603.664 287.02C603.664 287.98 602.98 288.568 601.996 288.568C601 288.568 600.316 287.98 600.316 287.02ZM624.895 304H622.627V295.78C622.627 293.776 621.583 293.248 620.335 293.248C618.895 293.248 617.743 293.956 616.819 295.024V304H614.551V291.676H616.471L616.675 293.44H616.975C617.947 292.396 619.231 291.388 621.319 291.388C623.515 291.388 624.895 292.504 624.895 295.18V304ZM637.054 291.388C640.306 291.388 642.178 292.564 642.274 295.06L640.21 295.204C640.054 293.8 638.974 293.08 636.898 293.08C635.026 293.08 633.85 293.632 633.85 294.796C633.85 295.852 634.846 296.284 637.594 296.848C640.882 297.52 642.418 298.276 642.418 300.424C642.418 302.74 640.582 304.276 636.958 304.276C633.55 304.276 631.606 303.304 631.054 300.424L633.142 300.16C633.718 302.32 635.29 302.524 637.066 302.524C639.274 302.524 640.15 301.648 640.15 300.676C640.15 299.596 639.118 299.212 636.19 298.612C633.226 298 631.678 297.112 631.678 295C631.678 292.804 633.346 291.388 637.054 291.388ZM654 291.388C657.012 291.388 658.776 292.384 658.776 295.288V301.396C658.776 302.284 659.112 302.512 660.24 302.344V304C659.676 304.168 659.16 304.24 658.704 304.24C657.216 304.24 656.724 303.448 656.64 302.464H656.424C655.428 303.364 654.168 304.288 652.176 304.288C649.896 304.288 648.444 303.064 648.444 300.964C648.444 297.52 652.32 297.076 656.508 297.1V295.42C656.508 293.44 655.392 292.996 653.76 293.008C652.2 293.02 651.012 293.464 650.988 295.108V295.636H648.864V294.988C648.864 292.876 650.316 291.388 654 291.388ZM650.82 300.688C650.82 301.912 651.708 302.572 653.196 302.572C654.492 302.572 655.5 302.068 656.508 301.336V298.432C656.124 298.396 655.728 298.372 655.368 298.372C652.536 298.372 650.82 298.996 650.82 300.688ZM676.743 304H674.475V295.78C674.475 293.776 673.431 293.248 672.183 293.248C670.743 293.248 669.591 293.956 668.667 295.024V304H666.399V291.676H668.319L668.523 293.44H668.823C669.795 292.396 671.079 291.388 673.167 291.388C675.363 291.388 676.743 292.504 676.743 295.18V304ZM682.842 297.82C682.842 293.656 685.326 291.388 689.118 291.388C692.61 291.388 694.65 293.212 694.65 296.836V297.916H685.17C685.206 300.916 686.634 302.428 689.046 302.428C690.618 302.428 691.806 301.792 692.394 300.388L694.602 300.76C693.762 303.064 691.746 304.288 689.034 304.288C685.35 304.288 682.842 302.056 682.842 297.82ZM685.29 296.404H692.43C692.418 294.208 690.978 293.248 689.046 293.248C687.03 293.248 685.686 294.316 685.29 296.404ZM729.3 300.244C728.616 302.968 726.372 304.288 723.564 304.288C719.928 304.288 717.408 302.08 717.408 297.808C717.408 293.512 719.976 291.388 723.684 291.388C726.696 291.388 728.988 292.792 729.3 295.756L727.056 295.948C726.768 294.052 725.424 293.248 723.624 293.248C721.08 293.248 719.748 294.856 719.748 297.808C719.748 300.928 721.236 302.428 723.576 302.428C725.364 302.428 726.6 301.564 727.104 299.896L729.3 300.244ZM735.53 291.676H737.798V299.884C737.798 301.9 738.842 302.416 740.09 302.416C741.53 302.416 742.682 301.72 743.606 300.652V291.676H745.874V304H743.954L743.75 302.236H743.45C742.478 303.268 741.194 304.276 739.106 304.276C736.91 304.276 735.53 303.16 735.53 300.496V291.676ZM758.033 291.388C761.285 291.388 763.157 292.564 763.253 295.06L761.189 295.204C761.033 293.8 759.953 293.08 757.877 293.08C756.005 293.08 754.829 293.632 754.829 294.796C754.829 295.852 755.825 296.284 758.573 296.848C761.861 297.52 763.397 298.276 763.397 300.424C763.397 302.74 761.561 304.276 757.937 304.276C754.529 304.276 752.585 303.304 752.033 300.424L754.121 300.16C754.697 302.32 756.269 302.524 758.045 302.524C760.253 302.524 761.129 301.648 761.129 300.676C761.129 299.596 760.097 299.212 757.169 298.612C754.205 298 752.657 297.112 752.657 295C752.657 292.804 754.325 291.388 758.033 291.388ZM772.58 299.884V293.512H769.004V291.676H772.58V287.812H774.86V291.676H780.524V293.512H774.86V300.028C774.86 301.732 775.604 302.488 776.864 302.488C778.184 302.488 778.892 301.66 778.892 300.028V299.428H780.608V299.872C780.608 302.752 779.444 304.276 776.588 304.276C773.924 304.276 772.58 302.968 772.58 299.884ZM798.563 297.856C798.563 302.176 795.863 304.288 792.551 304.288C789.251 304.288 786.539 302.176 786.539 297.856C786.539 293.548 789.251 291.388 792.551 291.388C795.863 291.388 798.563 293.548 798.563 297.856ZM788.867 297.856C788.867 301 790.391 302.428 792.551 302.428C794.711 302.428 796.223 301 796.223 297.856C796.223 294.712 794.711 293.248 792.551 293.248C790.391 293.248 788.867 294.712 788.867 297.856ZM811.91 304H809.774V294.856C809.774 293.632 809.102 293.308 808.418 293.308C807.53 293.308 806.822 293.872 806.318 294.676V304H804.206V291.676H805.982L806.162 293.452H806.342C806.942 292.252 808.01 291.4 809.438 291.4C810.746 291.4 811.634 292.06 811.838 293.452H811.934C812.534 292.252 813.566 291.4 815.006 291.4C816.494 291.4 817.454 292.264 817.466 294.124L817.478 304H815.342V294.856C815.342 293.632 814.67 293.308 813.974 293.308C813.086 293.308 812.39 293.86 811.886 294.652L811.91 304ZM823.745 304V302.176H827.045V293.476H823.745V291.676L829.025 291.4L829.325 291.688V302.176H832.625V304H823.745ZM826.073 287.068C826.073 286.108 826.757 285.532 827.753 285.532C828.737 285.532 829.421 286.108 829.421 287.068C829.421 288.028 828.737 288.616 827.753 288.616C826.757 288.616 826.073 288.028 826.073 287.068ZM839.023 291.676H849.307V293.008L842.119 302.164H849.775V304H839.023V302.656L846.199 293.512H839.023V291.676ZM861.394 291.388C864.406 291.388 866.17 292.384 866.17 295.288V301.396C866.17 302.284 866.506 302.512 867.634 302.344V304C867.07 304.168 866.554 304.24 866.098 304.24C864.61 304.24 864.118 303.448 864.034 302.464H863.818C862.822 303.364 861.562 304.288 859.57 304.288C857.29 304.288 855.838 303.064 855.838 300.964C855.838 297.52 859.714 297.076 863.902 297.1V295.42C863.902 293.44 862.786 292.996 861.154 293.008C859.594 293.02 858.406 293.464 858.382 295.108V295.636H856.258V294.988C856.258 292.876 857.71 291.388 861.394 291.388ZM858.214 300.688C858.214 301.912 859.102 302.572 860.59 302.572C861.886 302.572 862.894 302.068 863.902 301.336V298.432C863.518 298.396 863.122 298.372 862.762 298.372C859.93 298.372 858.214 298.996 858.214 300.688ZM876.277 299.884V293.512H872.701V291.676H876.277V287.812H878.557V291.676H884.221V293.512H878.557V300.028C878.557 301.732 879.301 302.488 880.561 302.488C881.881 302.488 882.589 301.66 882.589 300.028V299.428H884.305V299.872C884.305 302.752 883.141 304.276 880.285 304.276C877.621 304.276 876.277 302.968 876.277 299.884ZM890.74 304V302.164H895.108V293.476H890.74V291.676L897.088 291.4L897.388 291.688V302.164H901.756V304H890.74ZM894.124 287.02C894.124 286.06 894.808 285.484 895.804 285.484C896.788 285.484 897.472 286.06 897.472 287.02C897.472 287.98 896.788 288.568 895.804 288.568C894.808 288.568 894.124 287.98 894.124 287.02ZM919.543 297.856C919.543 302.176 916.843 304.288 913.531 304.288C910.231 304.288 907.519 302.176 907.519 297.856C907.519 293.548 910.231 291.388 913.531 291.388C916.843 291.388 919.543 293.548 919.543 297.856ZM909.847 297.856C909.847 301 911.371 302.428 913.531 302.428C915.691 302.428 917.203 301 917.203 297.856C917.203 294.712 915.691 293.248 913.531 293.248C911.371 293.248 909.847 294.712 909.847 297.856ZM935.985 304H933.717V295.78C933.717 293.776 932.673 293.248 931.425 293.248C929.985 293.248 928.833 293.956 927.909 295.024V304H925.641V291.676H927.561L927.765 293.44H928.065C929.037 292.396 930.321 291.388 932.409 291.388C934.605 291.388 935.985 292.504 935.985 295.18V304Z" fill="#94E2D5"/>
</g>
</svg>
