<svg width="153.6" height="153.6" viewBox="19.2 19.2 153.6 153.6" fill="none" xmlns="http://www.w3.org/2000/svg">
<g transform="translate(-16 -216)">
<path d="M75.5455 129.977V71.7957H89V76.2502H80.6364V125.523H89V129.977H75.5455Z" fill="#32C572"/>
<path d="M115.52 115.523V112.291L119.84 110.531V91.9389C119.84 87.8749 117.728 86.4669 114.912 86.4669C112.704 86.4669 109.696 87.1709 106.272 89.0589V110.595L110.496 112.291V115.523H96V112.291L100.32 110.531V88.6109L94.72 87.7469V84.1949L105.088 81.7949L105.92 82.1469V85.8269C110.112 83.1709 113.952 81.6349 117.696 81.6349C123.168 81.6349 125.792 84.7389 125.792 90.6909V110.595L130.016 112.291V115.523H115.52Z" fill="#E6EBF9"/>
<path d="M147.636 71.7957V129.977H134.182V125.523H142.545V76.2502H134.182V71.7957H147.636Z" fill="#32C572"/>
<path d="M64.1597 146.886H112.705V151.977H59.7046V138.523H64.1597V146.886Z" fill="#179299"/>
<path d="M164.295 151.977H112.114V146.886H159.841V138.523H164.295V151.977Z" fill="#179299"/>
<path d="M75.5455 329.977V271.796H89V276.25H80.6364V325.523H89V329.977H75.5455Z" fill="#32C572"/>
<path d="M115.52 315.523V312.291L119.84 310.531V291.939C119.84 287.875 117.728 286.467 114.912 286.467C112.704 286.467 109.696 287.171 106.272 289.059V310.595L110.496 312.291V315.523H96V312.291L100.32 310.531V288.611L94.72 287.747V284.195L105.088 281.795L105.92 282.147V285.827C110.112 283.171 113.952 281.635 117.696 281.635C123.168 281.635 125.792 284.739 125.792 290.691V310.595L130.016 312.291V315.523H115.52Z" fill="#2A2D3F"/>
<path d="M147.636 271.796V329.977H134.182V325.523H142.545V276.25H134.182V271.796H147.636Z" fill="#32C572"/>
<path d="M64.1597 346.886H112.705V351.977H59.7046V338.523H64.1597V346.886Z" fill="#179299"/>
<path d="M164.295 351.977H112.114V346.886H159.841V338.523H164.295V351.977Z" fill="#179299"/>
</g>
</svg>
