<svg width="153.6" height="153.6" viewBox="19.2 19.2 153.6 153.6" fill="none" xmlns="http://www.w3.org/2000/svg">
<g transform="translate(-8 -208)">
<path d="M35.5455 132.705V74.5227H49V78.9773H40.6364V128.25H49V132.705H35.5455Z" fill="#32C572"/>
<path d="M107.52 118.25V115.018L111.84 113.258V94.666C111.84 90.602 109.728 89.194 106.912 89.194C104.704 89.194 101.696 89.898 98.272 91.786V113.322L102.496 115.018V118.25H88V115.018L92.32 113.258V91.338L86.72 90.474V86.922L97.088 84.522L97.92 84.874V88.554C102.112 85.898 105.952 84.362 109.696 84.362C115.168 84.362 117.792 87.466 117.792 93.418V113.322L122.016 115.018V118.25H107.52Z" fill="#E6EBF9"/>
<path d="M171.636 74.5227V132.705H158.182V128.25H166.545V78.9773H158.182V74.5227H171.636Z" fill="#32C572"/>
<path d="M35.5455 332.705V274.523H49V278.977H40.6364V328.25H49V332.705H35.5455Z" fill="#32C572"/>
<path d="M107.52 318.25V315.018L111.84 313.258V294.666C111.84 290.602 109.728 289.194 106.912 289.194C104.704 289.194 101.696 289.898 98.272 291.786V313.322L102.496 315.018V318.25H88V315.018L92.32 313.258V291.338L86.72 290.474V286.922L97.088 284.522L97.92 284.874V288.554C102.112 285.898 105.952 284.362 109.696 284.362C115.168 284.362 117.792 287.466 117.792 293.418V313.322L122.016 315.018V318.25H107.52Z" fill="#2A2D3F"/>
<path d="M171.636 274.523V332.705H158.182V328.25H166.545V278.977H158.182V274.523H171.636Z" fill="#32C572"/>
</g>
</svg>
