<svg width="192" height="192" viewBox="0 0 192 192" fill="none" xmlns="http://www.w3.org/2000/svg">
<g transform="translate(-8 -8)">
<rect width="192" height="192" transform="translate(8 8)" fill="#1E1E2E"/>
<path d="M33.0455 132.705V74.5227H46.5V78.9773H38.1364V128.25H46.5V132.705H33.0455Z" fill="#32C572"/>
<path d="M73.02 118.25V115.018L77.34 113.258V94.666C77.34 90.602 75.228 89.194 72.412 89.194C70.204 89.194 67.196 89.898 63.772 91.786V113.322L67.996 115.018V118.25H53.5V115.018L57.82 113.258V91.338L52.22 90.474V86.922L62.588 84.522L63.42 84.874V88.554C67.612 85.898 71.452 84.362 75.196 84.362C80.668 84.362 83.292 87.466 83.292 93.418V113.322L87.516 115.018V118.25H73.02Z" fill="#E6EBF9"/>
<path d="M105.636 74.5227V132.705H92.1816V128.25H100.545V78.9773H92.1816V74.5227H105.636Z" fill="#32C572"/>
<path d="M175.199 74.5227V132.705H161.744V128.25H170.108V78.9773H161.744V74.5227H175.199Z" fill="#32C572"/>
<path d="M128.824 132.705H115.369V128.25H128.824V132.705Z" fill="#32C572"/>
<path d="M128.824 78.9773H115.369V74.5227H128.824V78.9773Z" fill="#32C572"/>
<path d="M152.011 78.9773H138.557V74.5227H152.011V78.9773Z" fill="#32C572"/>
<path d="M152.011 132.705H138.557V128.25H152.011V132.705Z" fill="#32C572"/>
<rect width="192" height="192" transform="translate(8 208)" fill="#EFF1F5"/>
<path d="M33.0455 332.705V274.523H46.5V278.977H38.1364V328.25H46.5V332.705H33.0455Z" fill="#32C572"/>
<path d="M73.02 318.25V315.018L77.34 313.258V294.666C77.34 290.602 75.228 289.194 72.412 289.194C70.204 289.194 67.196 289.898 63.772 291.786V313.322L67.996 315.018V318.25H53.5V315.018L57.82 313.258V291.338L52.22 290.474V286.922L62.588 284.522L63.42 284.874V288.554C67.612 285.898 71.452 284.362 75.196 284.362C80.668 284.362 83.292 287.466 83.292 293.418V313.322L87.516 315.018V318.25H73.02Z" fill="#2A2D3F"/>
<path d="M105.636 274.523V332.705H92.1816V328.25H100.545V278.977H92.1816V274.523H105.636Z" fill="#32C572"/>
<path d="M175.199 274.523V332.705H161.744V328.25H170.108V278.977H161.744V274.523H175.199Z" fill="#32C572"/>
<path d="M128.824 332.705H115.369V328.25H128.824V332.705Z" fill="#32C572"/>
<path d="M128.824 278.977H115.369V274.523H128.824V278.977Z" fill="#32C572"/>
<path d="M152.011 278.977H138.557V274.523H152.011V278.977Z" fill="#32C572"/>
<path d="M152.011 332.705H138.557V328.25H152.011V332.705Z" fill="#32C572"/>
</g>
</svg>
