<svg width="192" height="192" viewBox="0 0 192 192" fill="none" xmlns="http://www.w3.org/2000/svg">
<g transform="translate(-16 -216)">
<path d="M47.3636 111.705V108.886C49.8939 108.886 51.6591 108.356 52.6591 107.295C53.6742 106.235 54.1818 104.462 54.1818 101.977V94.7045C54.1818 92.6136 54.3788 90.803 54.7727 89.2727C55.1818 87.7424 55.8409 86.4773 56.75 85.4773C57.6591 84.4773 58.8712 83.7348 60.3864 83.25C61.9015 82.7651 63.7727 82.5227 66 82.5227V86.9773C64.2424 86.9773 62.8561 87.25 61.8409 87.7955C60.8409 88.3409 60.1288 89.1894 59.7045 90.3409C59.2955 91.4773 59.0909 92.9318 59.0909 94.7045V103.795C59.0909 104.977 58.9318 106.053 58.6136 107.023C58.3106 107.992 57.7424 108.826 56.9091 109.523C56.0758 110.22 54.8864 110.758 53.3409 111.136C51.8106 111.515 49.8182 111.705 47.3636 111.705ZM66 140.705C63.7727 140.705 61.9015 140.462 60.3864 139.977C58.8712 139.492 57.6591 138.75 56.75 137.75C55.8409 136.75 55.1818 135.485 54.7727 133.955C54.3788 132.424 54.1818 130.614 54.1818 128.523V121.25C54.1818 118.765 53.6742 116.992 52.6591 115.932C51.6591 114.871 49.8939 114.341 47.3636 114.341V111.523C49.8182 111.523 51.8106 111.712 53.3409 112.091C54.8864 112.47 56.0758 113.008 56.9091 113.705C57.7424 114.402 58.3106 115.235 58.6136 116.205C58.9318 117.174 59.0909 118.25 59.0909 119.432V128.523C59.0909 130.295 59.2955 131.75 59.7045 132.886C60.1288 134.023 60.8409 134.864 61.8409 135.409C62.8561 135.97 64.2424 136.25 66 136.25V140.705ZM47.3636 114.341V108.886H52.7273V114.341H47.3636Z" fill="#9399B2"/>
<path d="M75.733 140.705V82.5227H89.1875V86.9773H80.8239V136.25H89.1875V140.705H75.733Z" fill="#32C572"/>
<path d="M115.52 126.25V123.018L119.84 121.258V102.666C119.84 98.602 117.728 97.194 114.912 97.194C112.704 97.194 109.696 97.898 106.272 99.786V121.322L110.496 123.018V126.25H96V123.018L100.32 121.258V99.338L94.72 98.474V94.922L105.088 92.522L105.92 92.874V96.554C110.112 93.898 113.952 92.362 117.696 92.362C123.168 92.362 125.792 95.466 125.792 101.418V121.322L130.016 123.018V126.25H115.52Z" fill="#E6EBF9"/>
<path d="M147.636 82.5227V140.705H134.182V136.25H142.545V86.9773H134.182V82.5227H147.636Z" fill="#32C572"/>
<path d="M176.006 111.523V114.341C173.475 114.341 171.703 114.871 170.688 115.932C169.688 116.992 169.188 118.765 169.188 121.25V128.523C169.188 130.614 168.983 132.424 168.574 133.955C168.18 135.485 167.528 136.75 166.619 137.75C165.71 138.75 164.498 139.492 162.983 139.977C161.468 140.462 159.597 140.705 157.369 140.705V136.25C159.127 136.25 160.506 135.97 161.506 135.409C162.521 134.864 163.233 134.023 163.642 132.886C164.066 131.75 164.278 130.295 164.278 128.523V119.432C164.278 118.25 164.43 117.174 164.733 116.205C165.051 115.235 165.627 114.402 166.46 113.705C167.294 113.008 168.475 112.47 170.006 112.091C171.551 111.712 173.551 111.523 176.006 111.523ZM157.369 82.5227C159.597 82.5227 161.468 82.7651 162.983 83.25C164.498 83.7348 165.71 84.4773 166.619 85.4773C167.528 86.4773 168.18 87.7424 168.574 89.2727C168.983 90.803 169.188 92.6136 169.188 94.7045V101.977C169.188 104.462 169.688 106.235 170.688 107.295C171.703 108.356 173.475 108.886 176.006 108.886V111.705C173.551 111.705 171.551 111.515 170.006 111.136C168.475 110.758 167.294 110.22 166.46 109.523C165.627 108.826 165.051 107.992 164.733 107.023C164.43 106.053 164.278 104.977 164.278 103.795V94.7045C164.278 92.9318 164.066 91.4773 163.642 90.3409C163.233 89.1894 162.521 88.3409 161.506 87.7955C160.506 87.25 159.127 86.9773 157.369 86.9773V82.5227ZM176.006 108.886V114.341H170.642V108.886H176.006Z" fill="#9399B2"/>
<path d="M111 55.1818L113.818 55.1818C113.818 57.7121 114.348 59.4848 115.409 60.5C116.47 61.5 118.242 62 120.727 62H128C130.091 62 131.902 62.2045 133.432 62.6136C134.962 63.0076 136.227 63.6591 137.227 64.5682C138.227 65.4773 138.97 66.6894 139.455 68.2045C139.939 69.7197 140.182 71.5909 140.182 73.8182H135.727C135.727 72.0606 135.447 70.6818 134.886 69.6818C134.341 68.6667 133.5 67.9545 132.364 67.5455C131.227 67.1212 129.773 66.9091 128 66.9091L118.909 66.9091C117.727 66.9091 116.652 66.7576 115.682 66.4545C114.712 66.1364 113.879 65.5606 113.182 64.7273C112.485 63.8939 111.947 62.7121 111.568 61.1818C111.189 59.6364 111 57.6364 111 55.1818ZM82 73.8182C82 71.5909 82.2424 69.7197 82.7273 68.2045C83.2121 66.6894 83.9545 65.4773 84.9545 64.5682C85.9545 63.6591 87.2197 63.0076 88.75 62.6136C90.2803 62.2045 92.0909 62 94.1818 62L101.455 62C103.939 62 105.712 61.5 106.773 60.5C107.833 59.4848 108.364 57.7121 108.364 55.1818L111.182 55.1818C111.182 57.6364 110.992 59.6364 110.614 61.1818C110.235 62.7121 109.697 63.8939 109 64.7273C108.303 65.5606 107.47 66.1364 106.5 66.4545C105.53 66.7576 104.455 66.9091 103.273 66.9091L94.1818 66.9091C92.4091 66.9091 90.9545 67.1212 89.8182 67.5455C88.6667 67.9545 87.8182 68.6667 87.2727 69.6818C86.7273 70.6818 86.4545 72.0606 86.4545 73.8182H82ZM108.364 55.1818L113.818 55.1818V60.5455L108.364 60.5455V55.1818Z" fill="#9399B2"/>
<path d="M112.182 168.818L109.364 168.818C109.364 166.288 108.833 164.515 107.773 163.5C106.712 162.5 104.939 162 102.455 162L95.1818 162C93.0909 162 91.2803 161.795 89.75 161.386C88.2197 160.992 86.9545 160.341 85.9545 159.432C84.9545 158.523 84.2121 157.311 83.7273 155.795C83.2424 154.28 83 152.409 83 150.182L87.4545 150.182C87.4545 151.939 87.7348 153.318 88.2955 154.318C88.8409 155.333 89.6818 156.045 90.8182 156.455C91.9545 156.879 93.4091 157.091 95.1818 157.091H104.273C105.455 157.091 106.53 157.242 107.5 157.545C108.47 157.864 109.303 158.439 110 159.273C110.697 160.106 111.235 161.288 111.614 162.818C111.992 164.364 112.182 166.364 112.182 168.818ZM141.182 150.182C141.182 152.409 140.939 154.28 140.455 155.795C139.97 157.311 139.227 158.523 138.227 159.432C137.227 160.341 135.962 160.992 134.432 161.386C132.902 161.795 131.091 162 129 162H121.727C119.242 162 117.47 162.5 116.409 163.5C115.348 164.515 114.818 166.288 114.818 168.818H112C112 166.364 112.189 164.364 112.568 162.818C112.947 161.288 113.485 160.106 114.182 159.273C114.879 158.439 115.712 157.864 116.682 157.545C117.652 157.242 118.727 157.091 119.909 157.091L129 157.091C130.773 157.091 132.227 156.879 133.364 156.455C134.515 156.045 135.364 155.333 135.909 154.318C136.455 153.318 136.727 151.939 136.727 150.182L141.182 150.182ZM114.818 168.818L109.364 168.818V163.455H114.818V168.818Z" fill="#9399B2"/>
<path d="M47.3636 311.705V308.886C49.8939 308.886 51.6591 308.356 52.6591 307.295C53.6742 306.235 54.1818 304.462 54.1818 301.977V294.705C54.1818 292.614 54.3788 290.803 54.7727 289.273C55.1818 287.742 55.8409 286.477 56.75 285.477C57.6591 284.477 58.8712 283.735 60.3864 283.25C61.9015 282.765 63.7727 282.523 66 282.523V286.977C64.2424 286.977 62.8561 287.25 61.8409 287.795C60.8409 288.341 60.1288 289.189 59.7045 290.341C59.2955 291.477 59.0909 292.932 59.0909 294.705V303.795C59.0909 304.977 58.9318 306.053 58.6136 307.023C58.3106 307.992 57.7424 308.826 56.9091 309.523C56.0758 310.22 54.8864 310.758 53.3409 311.136C51.8106 311.515 49.8182 311.705 47.3636 311.705ZM66 340.705C63.7727 340.705 61.9015 340.462 60.3864 339.977C58.8712 339.492 57.6591 338.75 56.75 337.75C55.8409 336.75 55.1818 335.485 54.7727 333.955C54.3788 332.424 54.1818 330.614 54.1818 328.523V321.25C54.1818 318.765 53.6742 316.992 52.6591 315.932C51.6591 314.871 49.8939 314.341 47.3636 314.341V311.523C49.8182 311.523 51.8106 311.712 53.3409 312.091C54.8864 312.47 56.0758 313.008 56.9091 313.705C57.7424 314.402 58.3106 315.235 58.6136 316.205C58.9318 317.174 59.0909 318.25 59.0909 319.432V328.523C59.0909 330.295 59.2955 331.75 59.7045 332.886C60.1288 334.023 60.8409 334.864 61.8409 335.409C62.8561 335.97 64.2424 336.25 66 336.25V340.705ZM47.3636 314.341V308.886H52.7273V314.341H47.3636Z" fill="#6C6F85"/>
<path d="M75.733 340.705V282.523H89.1875V286.977H80.8239V336.25H89.1875V340.705H75.733Z" fill="#32C572"/>
<path d="M115.52 326.25V323.018L119.84 321.258V302.666C119.84 298.602 117.728 297.194 114.912 297.194C112.704 297.194 109.696 297.898 106.272 299.786V321.322L110.496 323.018V326.25H96V323.018L100.32 321.258V299.338L94.72 298.474V294.922L105.088 292.522L105.92 292.874V296.554C110.112 293.898 113.952 292.362 117.696 292.362C123.168 292.362 125.792 295.466 125.792 301.418V321.322L130.016 323.018V326.25H115.52Z" fill="#2A2D3F"/>
<path d="M147.636 282.523V340.705H134.182V336.25H142.545V286.977H134.182V282.523H147.636Z" fill="#32C572"/>
<path d="M176.006 311.523V314.341C173.475 314.341 171.703 314.871 170.688 315.932C169.688 316.992 169.188 318.765 169.188 321.25V328.523C169.188 330.614 168.983 332.424 168.574 333.955C168.18 335.485 167.528 336.75 166.619 337.75C165.71 338.75 164.498 339.492 162.983 339.977C161.468 340.462 159.597 340.705 157.369 340.705V336.25C159.127 336.25 160.506 335.97 161.506 335.409C162.521 334.864 163.233 334.023 163.642 332.886C164.066 331.75 164.278 330.295 164.278 328.523V319.432C164.278 318.25 164.43 317.174 164.733 316.205C165.051 315.235 165.627 314.402 166.46 313.705C167.294 313.008 168.475 312.47 170.006 312.091C171.551 311.712 173.551 311.523 176.006 311.523ZM157.369 282.523C159.597 282.523 161.468 282.765 162.983 283.25C164.498 283.735 165.71 284.477 166.619 285.477C167.528 286.477 168.18 287.742 168.574 289.273C168.983 290.803 169.188 292.614 169.188 294.705V301.977C169.188 304.462 169.688 306.235 170.688 307.295C171.703 308.356 173.475 308.886 176.006 308.886V311.705C173.551 311.705 171.551 311.515 170.006 311.136C168.475 310.758 167.294 310.22 166.46 309.523C165.627 308.826 165.051 307.992 164.733 307.023C164.43 306.053 164.278 304.977 164.278 303.795V294.705C164.278 292.932 164.066 291.477 163.642 290.341C163.233 289.189 162.521 288.341 161.506 287.795C160.506 287.25 159.127 286.977 157.369 286.977V282.523ZM176.006 308.886V314.341H170.642V308.886H176.006Z" fill="#6C6F85"/>
<path d="M111 255.182L113.818 255.182C113.818 257.712 114.348 259.485 115.409 260.5C116.47 261.5 118.242 262 120.727 262H128C130.091 262 131.902 262.205 133.432 262.614C134.962 263.008 136.227 263.659 137.227 264.568C138.227 265.477 138.97 266.689 139.455 268.205C139.939 269.72 140.182 271.591 140.182 273.818H135.727C135.727 272.061 135.447 270.682 134.886 269.682C134.341 268.667 133.5 267.955 132.364 267.545C131.227 267.121 129.773 266.909 128 266.909L118.909 266.909C117.727 266.909 116.652 266.758 115.682 266.455C114.712 266.136 113.879 265.561 113.182 264.727C112.485 263.894 111.947 262.712 111.568 261.182C111.189 259.636 111 257.636 111 255.182ZM82 273.818C82 271.591 82.2424 269.72 82.7273 268.205C83.2121 266.689 83.9545 265.477 84.9545 264.568C85.9545 263.659 87.2197 263.008 88.75 262.614C90.2803 262.205 92.0909 262 94.1818 262L101.455 262C103.939 262 105.712 261.5 106.773 260.5C107.833 259.485 108.364 257.712 108.364 255.182L111.182 255.182C111.182 257.636 110.992 259.636 110.614 261.182C110.235 262.712 109.697 263.894 109 264.727C108.303 265.561 107.47 266.136 106.5 266.455C105.53 266.758 104.455 266.909 103.273 266.909L94.1818 266.909C92.4091 266.909 90.9545 267.121 89.8182 267.545C88.6667 267.955 87.8182 268.667 87.2727 269.682C86.7273 270.682 86.4545 272.061 86.4545 273.818H82ZM108.364 255.182L113.818 255.182V260.545L108.364 260.545V255.182Z" fill="#6C6F85"/>
<path d="M112.182 368.818L109.364 368.818C109.364 366.288 108.833 364.515 107.773 363.5C106.712 362.5 104.939 362 102.455 362L95.1818 362C93.0909 362 91.2803 361.795 89.75 361.386C88.2197 360.992 86.9545 360.341 85.9545 359.432C84.9545 358.523 84.2121 357.311 83.7273 355.795C83.2424 354.28 83 352.409 83 350.182L87.4545 350.182C87.4545 351.939 87.7348 353.318 88.2955 354.318C88.8409 355.333 89.6818 356.045 90.8182 356.455C91.9545 356.879 93.4091 357.091 95.1818 357.091H104.273C105.455 357.091 106.53 357.242 107.5 357.545C108.47 357.864 109.303 358.439 110 359.273C110.697 360.106 111.235 361.288 111.614 362.818C111.992 364.364 112.182 366.364 112.182 368.818ZM141.182 350.182C141.182 352.409 140.939 354.28 140.455 355.795C139.97 357.311 139.227 358.523 138.227 359.432C137.227 360.341 135.962 360.992 134.432 361.386C132.902 361.795 131.091 362 129 362H121.727C119.242 362 117.47 362.5 116.409 363.5C115.348 364.515 114.818 366.288 114.818 368.818H112C112 366.364 112.189 364.364 112.568 362.818C112.947 361.288 113.485 360.106 114.182 359.273C114.879 358.439 115.712 357.864 116.682 357.545C117.652 357.242 118.727 357.091 119.909 357.091L129 357.091C130.773 357.091 132.227 356.879 133.364 356.455C134.515 356.045 135.364 355.333 135.909 354.318C136.455 353.318 136.727 351.939 136.727 350.182L141.182 350.182ZM114.818 368.818L109.364 368.818V363.455H114.818V368.818Z" fill="#6C6F85"/>
</g>
</svg>
