<svg width="153.6" height="153.6" viewBox="19.2 19.2 153.6 153.6" fill="none" xmlns="http://www.w3.org/2000/svg">
<g transform="translate(-8 -208)">
<path d="M57.0455 132.705V74.5227H70.5V78.9773H62.1364V128.25H70.5V132.705H57.0455Z" fill="#32C572"/>
<path d="M97.02 118.25V115.018L101.34 113.258V94.666C101.34 90.602 99.228 89.194 96.412 89.194C94.204 89.194 91.196 89.898 87.772 91.786V113.322L91.996 115.018V118.25H77.5V115.018L81.82 113.258V91.338L76.22 90.474V86.922L86.588 84.522L87.42 84.874V88.554C91.612 85.898 95.452 84.362 99.196 84.362C104.668 84.362 107.292 87.466 107.292 93.418V113.322L111.516 115.018V118.25H97.02Z" fill="#E6EBF9"/>
<path d="M129.136 74.5227V132.705H115.682V128.25H124.045V78.9773H115.682V74.5227H129.136Z" fill="#32C572"/>
<path d="M140.688 69.038C140.688 74.858 143.4 78.014 146.76 81.05H143.616C140.796 78.914 137.292 75.494 137.292 69.038C137.292 62.606 140.796 59.162 143.616 57.026H146.76C143.4 60.062 140.688 63.218 140.688 69.038Z" fill="#E64553"/>
<path d="M150.492 76.25V74.762L155.172 73.682V61.646L150.492 63.338V61.622L155.856 58.73H158.112V73.706L162.084 74.762V76.25H150.492Z" fill="#E6EBF9"/>
<path d="M171.192 69.038C171.192 63.218 168.48 60.062 165.12 57.026H168.264C171.084 59.162 174.588 62.582 174.588 69.038C174.588 75.47 171.084 78.914 168.264 81.05H165.12C168.48 78.014 171.192 74.858 171.192 69.038Z" fill="#E64553"/>
<path d="M57.0455 332.705V274.523H70.5V278.977H62.1364V328.25H70.5V332.705H57.0455Z" fill="#32C572"/>
<path d="M97.02 318.25V315.018L101.34 313.258V294.666C101.34 290.602 99.228 289.194 96.412 289.194C94.204 289.194 91.196 289.898 87.772 291.786V313.322L91.996 315.018V318.25H77.5V315.018L81.82 313.258V291.338L76.22 290.474V286.922L86.588 284.522L87.42 284.874V288.554C91.612 285.898 95.452 284.362 99.196 284.362C104.668 284.362 107.292 287.466 107.292 293.418V313.322L111.516 315.018V318.25H97.02Z" fill="#2A2D3F"/>
<path d="M129.136 274.523V332.705H115.682V328.25H124.045V278.977H115.682V274.523H129.136Z" fill="#32C572"/>
<path d="M140.688 269.038C140.688 274.858 143.4 278.014 146.76 281.05H143.616C140.796 278.914 137.292 275.494 137.292 269.038C137.292 262.606 140.796 259.162 143.616 257.026H146.76C143.4 260.062 140.688 263.218 140.688 269.038Z" fill="#E64553"/>
<path d="M150.492 276.25V274.762L155.172 273.682V261.646L150.492 263.338V261.622L155.856 258.73H158.112V273.706L162.084 274.762V276.25H150.492Z" fill="#2A2D3F"/>
<path d="M171.192 269.038C171.192 263.218 168.48 260.062 165.12 257.026H168.264C171.084 259.162 174.588 262.582 174.588 269.038C174.588 275.47 171.084 278.914 168.264 281.05H165.12C168.48 278.014 171.192 274.858 171.192 269.038Z" fill="#E64553"/>
</g>
</svg>
