<svg width="153.6" height="153.6" viewBox="19.2 19.2 153.6 153.6" fill="none" xmlns="http://www.w3.org/2000/svg">
<g transform="translate(-16 -16)">
<path d="M75.9546 141.5V83.3182H89.4091V87.7727H81.0455V137.045H89.4091V141.5H75.9546Z" fill="#32C572"/>
<path d="M115.929 127.045V123.813L120.249 122.053V103.461C120.249 99.3975 118.137 97.9895 115.321 97.9895C113.113 97.9895 110.105 98.6935 106.681 100.581V122.117L110.905 123.813V127.045H96.4091V123.813L100.729 122.053V100.133L95.1291 99.2695V95.7175L105.497 93.3175L106.329 93.6694V97.3495C110.521 94.6935 114.361 93.1575 118.105 93.1575C123.577 93.1575 126.201 96.2614 126.201 102.213V122.117L130.425 123.813V127.045H115.929Z" fill="#E6EBF9"/>
<path d="M148.046 83.3182V141.5H134.591V137.045H142.955V87.7727H134.591V83.3182H148.046Z" fill="#32C572"/>
<path d="M100.473 85.4135C101.081 79.2375 103.385 76.1335 107.097 76.1335C112.121 76.1335 113.721 81.7655 116.921 81.7655C118.809 81.7655 120.345 79.8775 120.857 76.4535L123.833 77.4775C123.225 83.6535 120.889 86.7895 117.177 86.7895C112.153 86.7895 110.617 81.1255 107.385 81.1255C105.529 81.1255 103.961 83.0135 103.449 86.4695L100.473 85.4135Z" fill="#FE640B"/>
<path d="M75.9546 341.5V283.318H89.4091V287.773H81.0455V337.045H89.4091V341.5H75.9546Z" fill="#32C572"/>
<path d="M115.929 327.045V323.813L120.249 322.053V303.461C120.249 299.397 118.137 297.989 115.321 297.989C113.113 297.989 110.105 298.693 106.681 300.581V322.117L110.905 323.813V327.045H96.4091V323.813L100.729 322.053V300.133L95.1291 299.269V295.717L105.497 293.317L106.329 293.669V297.349C110.521 294.693 114.361 293.157 118.105 293.157C123.577 293.157 126.201 296.261 126.201 302.213V322.117L130.425 323.813V327.045H115.929Z" fill="#2A2D3F"/>
<path d="M148.046 283.318V341.5H134.591V337.045H142.955V287.773H134.591V283.318H148.046Z" fill="#32C572"/>
<path d="M100.473 285.414C101.081 279.238 103.385 276.134 107.097 276.134C112.121 276.134 113.721 281.766 116.921 281.766C118.809 281.766 120.345 279.878 120.857 276.454L123.833 277.478C123.225 283.654 120.889 286.79 117.177 286.79C112.153 286.79 110.617 281.126 107.385 281.126C105.529 281.126 103.961 283.014 103.449 286.47L100.473 285.414Z" fill="#FE640B"/>
</g>
</svg>
