<svg width="192" height="192" viewBox="0 0 192 192" fill="none" xmlns="http://www.w3.org/2000/svg">
<g transform="translate(-16 -16)">
<path d="M52.5455 122.614V64.4319H66V68.8864H57.6364V118.159H66V122.614H52.5455Z" fill="#32C572"/>
<path d="M92.52 108.159V104.927L96.84 103.167V84.5752C96.84 80.5112 94.728 79.1032 91.912 79.1032C89.704 79.1032 86.696 79.8072 83.272 81.6952V103.231L87.496 104.927V108.159H73V104.927L77.32 103.167V81.2472L71.72 80.3832V76.8312L82.088 74.4312L82.92 74.7832V78.4632C87.112 75.8072 90.952 74.2712 94.696 74.2712C100.168 74.2712 102.792 77.3752 102.792 83.3272V103.231L107.016 104.927V108.159H92.52Z" fill="#E6EBF9"/>
<path d="M124.636 64.4319V122.614H111.182V118.159H119.545V68.8864H111.182V64.4319H124.636ZM139.733 122.614V64.4319H153.188V68.8864H144.824V118.159H153.188V122.614H139.733ZM171.011 64.4319V122.614H157.557V118.159H165.92V68.8864H157.557V64.4319H171.011Z" fill="#32C572"/>
<path d="M57.8577 154.886H66.2209V159.341H52.7668V136.841H57.8577V154.886Z" fill="#32C572"/>
<path d="M124.858 159.341H111.403V154.886H119.767V136.841H124.858V159.341Z" fill="#32C572"/>
<path d="M145.045 154.886H153.408V159.341H139.954V136.841H145.045V154.886Z" fill="#32C572"/>
<path d="M171.233 159.341H157.778V154.886H166.142V136.841H171.233V159.341Z" fill="#32C572"/>
<path d="M66.2214 135.613H57.8582L57.8577 136.841H52.7668L52.7673 131.159H66.2214V135.613Z" fill="#32C572"/>
<path d="M124.858 136.841H119.767L119.767 135.613H111.403V131.159H124.858L124.858 136.841Z" fill="#32C572"/>
<path d="M153.409 135.613H145.046L145.045 136.841H139.954L139.955 131.159H153.409V135.613Z" fill="#32C572"/>
<path d="M171.233 136.841H166.142L166.142 135.613H157.778V131.159H171.233L171.233 136.841Z" fill="#32C572"/>
<path d="M52.5455 322.614V264.432H66V268.886H57.6364V318.159H66V322.614H52.5455Z" fill="#32C572"/>
<path d="M92.52 308.159V304.927L96.84 303.167V284.575C96.84 280.511 94.728 279.103 91.912 279.103C89.704 279.103 86.696 279.807 83.272 281.695V303.231L87.496 304.927V308.159H73V304.927L77.32 303.167V281.247L71.72 280.383V276.831L82.088 274.431L82.92 274.783V278.463C87.112 275.807 90.952 274.271 94.696 274.271C100.168 274.271 102.792 277.375 102.792 283.327V303.231L107.016 304.927V308.159H92.52Z" fill="#2A2D3F"/>
<path d="M124.636 264.432V322.614H111.182V318.159H119.545V268.886H111.182V264.432H124.636ZM139.733 322.614V264.432H153.188V268.886H144.824V318.159H153.188V322.614H139.733ZM171.011 264.432V322.614H157.557V318.159H165.92V268.886H157.557V264.432H171.011Z" fill="#32C572"/>
<path d="M57.8577 354.886H66.2209V359.341H52.7668V336.841H57.8577V354.886Z" fill="#32C572"/>
<path d="M124.858 359.341H111.403V354.886H119.767V336.841H124.858V359.341Z" fill="#32C572"/>
<path d="M145.045 354.886H153.408V359.341H139.954V336.841H145.045V354.886Z" fill="#32C572"/>
<path d="M171.233 359.341H157.778V354.886H166.142V336.841H171.233V359.341Z" fill="#32C572"/>
<path d="M66.2214 335.613H57.8582L57.8577 336.841H52.7668L52.7673 331.159H66.2214V335.613Z" fill="#32C572"/>
<path d="M124.858 336.841H119.767L119.767 335.613H111.403V331.159H124.858L124.858 336.841Z" fill="#32C572"/>
<path d="M153.409 335.613H145.046L145.045 336.841H139.954L139.955 331.159H153.409V335.613Z" fill="#32C572"/>
<path d="M171.233 336.841H166.142L166.142 335.613H157.778V331.159H171.233L171.233 336.841Z" fill="#32C572"/>
</g>
</svg>
