<svg width="192" height="192" viewBox="0 0 192 192" fill="none" xmlns="http://www.w3.org/2000/svg">
<g transform="translate(-8 -8)">
<path d="M45.0455 132.705V74.5227H58.5V78.9773H50.1364V128.25H58.5V132.705H45.0455Z" fill="#32C572"/>
<path d="M85.02 118.25V115.018L89.34 113.258V94.666C89.34 90.602 87.228 89.194 84.412 89.194C82.204 89.194 79.196 89.898 75.772 91.786V113.322L79.996 115.018V118.25H65.5V115.018L69.82 113.258V91.338L64.22 90.474V86.922L74.588 84.522L75.42 84.874V88.554C79.612 85.898 83.452 84.362 87.196 84.362C92.668 84.362 95.292 87.466 95.292 93.418V113.322L99.516 115.018V118.25H85.02Z" fill="#E6EBF9"/>
<path d="M117.136 74.5227V132.705H103.682V128.25H112.045V78.9773H103.682V74.5227H117.136Z" fill="#32C572"/>
<path d="M138.227 64.7045V141.25H133.682V64.7045H138.227Z" fill="#E6EBF9"/>
<path d="M162.136 74.5227V132.705H148.682V128.25H157.045V78.9773H148.682V74.5227H162.136Z" fill="#32C572"/>
<path d="M45.0455 332.705V274.523H58.5V278.977H50.1364V328.25H58.5V332.705H45.0455Z" fill="#32C572"/>
<path d="M85.02 318.25V315.018L89.34 313.258V294.666C89.34 290.602 87.228 289.194 84.412 289.194C82.204 289.194 79.196 289.898 75.772 291.786V313.322L79.996 315.018V318.25H65.5V315.018L69.82 313.258V291.338L64.22 290.474V286.922L74.588 284.522L75.42 284.874V288.554C79.612 285.898 83.452 284.362 87.196 284.362C92.668 284.362 95.292 287.466 95.292 293.418V313.322L99.516 315.018V318.25H85.02Z" fill="#2A2D3F"/>
<path d="M117.136 274.523V332.705H103.682V328.25H112.045V278.977H103.682V274.523H117.136Z" fill="#32C572"/>
<path d="M138.227 264.705V341.25H133.682V264.705H138.227Z" fill="#2A2D3F"/>
<path d="M162.136 274.523V332.705H148.682V328.25H157.045V278.977H148.682V274.523H162.136Z" fill="#32C572"/>
</g>
</svg>
